<svg xmlns="http://www.w3.org/2000/svg" viewBox="0 0 24 24" width="24" height="24" fill="#fff"><path d="M22 5.92c-.64.28-1.33.46-2.05.55.74-.44 1.3-1.14 1.57-1.97-.7.41-1.47.71-2.29.87C18.9 4.44 17.88 4 16.77 4c-1.73 0-3.13 1.4-3.13 3.13 0 .25.03.5.08.74-2.6-.13-4.9-1.38-6.44-3.28-.27.46-.42 1-.42 1.56 0 1.08.55 2.04 1.38 2.6-.51-.02-.99-.16-1.41-.4v.04c0 1.5 1.07 2.76 2.5 3.05-.26.07-.53.1-.81.1-.2 0-.4-.02-.58-.06.4 1.25 1.55 2.17 2.92 2.2-1.07.84-2.42 1.34-3.88 1.34-.25 0-.5-.01-.74-.04C6.62 19.29 8.3 20 10.16 20c6.1 0 9.44-5.05 9.44-9.43v-.43c.65-.48 1.21-1.08 1.66-1.77-.6.27-1.24.45-1.9.53z"/></svg>